<svg width="214" height="185" viewBox="0 0 214 185" fill="none" xmlns="http://www.w3.org/2000/svg">
<path fill-rule="evenodd" clip-rule="evenodd" d="M214 0H0V185H214V0ZM84.441 68.1172H129.559V74.3952H108.798L120.405 85.2672L129.559 76.6922V85.7262L120.405 94.3012L107.163 81.8981L93.5954 94.4545L84.441 86.1856V76.9983L93.2684 85.2672L104.875 74.3952H84.441V68.1172ZM93.2684 97.0577L84.441 88.6359V97.3638L93.2684 106.092L107.163 94.3012L120.078 106.858L129.559 98.1293V89.2482L120.078 97.3638L107.163 84.8078L93.2684 97.0577ZM96.7015 107.776L107.163 98.1293L117.298 107.776L107.163 117.27L96.7015 107.776Z" fill="#D98E04"/>
</svg>
