<svg viewBox="0 0 58 47" xmlns="http://www.w3.org/2000/svg"><g fill="none" fill-rule="evenodd"><g id="016---Speech-Bubbles" fill-rule="nonzero"><path id="Shape" d="m25.79 36.7c-4.6565608.8235535-9.4518669.2853403-13.81-1.55l-10.7 2.38c-.26096355.0550912-.53155151-.0325543-.71065597-.2301868s-.23977597-.4755147-.15934403-.7298132l2.78-8.32c-2.06265736-2.8220624-3.17930298-6.2245061-3.19-9.72 0-10.23 9.62-18.53 21.5-18.53 11.69 0 21.2 8.05 21.46 18.06z" fill="#D98F28"/><path id="Shape" d="m5.9 12.941c-.36195405-.0006216-.69531899-.1967853-.87162777-.5128966-.17630877-.3161113-.16803697-.7028204.02162777-1.0111034 2.66731257-4.06865801 6.8476702-6.90499504 11.614-7.88.351028-.08630196.7213059.02355701.9684667.28733761.2471609.2637806.3327245.64041509.2237928.98509261-.1089316.34467751-.3953991.60373554-.7492595.67756978-4.2410827.85674273-7.96606394 3.36789323-10.351 6.978-.18278256.2971049-.50717543.4774916-.856.476z" fill="#fff"/><path id="Shape" d="m57.68 46.25c.0644423.1942426.020199.408114-.1160213.5608459-.1362203.1527318-.3436596.22105-.5439787.1791541l-8.21-1.84c-2.3109229.9844848-4.7981261 1.4880499-7.31 1.48-7.35 0-13.58-4.17-15.71-9.93-.5213322-1.401506-.7888439-2.8846723-.79-4.38.0756622-4.3094933 2.1905431-8.3277671 5.7-10.83 1.5910004-1.1908227 3.3778839-2.0944172 5.28-2.67 1.7887912-.5471709 3.6493965-.8235651 5.52-.82.49 0 .98.02 1.46.06 8.43.64 15.04 6.78 15.04 14.26-.0073785 2.6954803-.8647119 5.3199702-2.45 7.5z" fill="#fff"/><g fill="#D98F28"><path id="Shape" d="m49 26h-15c-.5522847 0-1-.4477153-1-1s.4477153-1 1-1h15c.5522847 0 1 .4477153 1 1s-.4477153 1-1 1z"/><path id="Shape" d="m52 31h-21c-.5522847 0-1-.4477153-1-1s.4477153-1 1-1h21c.5522847 0 1 .4477153 1 1s-.4477153 1-1 1z"/><path id="Shape" d="m52 36h-21c-.5522847 0-1-.4477153-1-1s.4477153-1 1-1h21c.5522847 0 1 .4477153 1 1s-.4477153 1-1 1z"/><path id="Shape" d="m49 41h-15c-.5522847 0-1-.4477153-1-1s.4477153-1 1-1h15c.5522847 0 1 .4477153 1 1s-.4477153 1-1 1z"/><circle id="Oval" fill="#fff" cx="10.5" cy="18.5" r="3.5"/><circle id="Oval" fill="#fff" cx="21.5" cy="18.5" r="3.5"/></g><circle id="Oval" cx="21" cy="4" fill="#fff" r="1"/><path id="Shape" d="m36 18.5c.0033114.1070567-.0033843.2141887-.02.32-1.9021161.5755828-3.6889996 1.4791773-5.28 2.67-1.0562492-.6252196-1.7029105-1.7625826-1.7-2.99 0-1.9329966 1.5670034-3.5 3.5-3.5s3.5 1.5670034 3.5 3.5z" fill="#fff"/></g></g></svg>