<svg width="457" height="449" viewBox="0 0 457 449" fill="none" xmlns="http://www.w3.org/2000/svg">
<path fill-rule="evenodd" clip-rule="evenodd" d="M457 0H0V449H457V0ZM143.592 207.12H136.296L141 246H148.584L151.704 222.528L155.016 246H162.504L167.16 207.12H159.96L157.608 229.632L154.536 207.168H148.824L145.896 229.776L143.592 207.12ZM188.821 207.12H171.349V246H188.917V240.192H179.941V228.576H186.709V222.624H179.941V212.976H188.821V207.12ZM201.41 207.12H192.818V246H210.337V240.192H201.41V207.12ZM215.601 243.264C217.393 245.472 220.401 246.576 224.625 246.576C228.689 246.576 231.569 245.568 233.265 243.552C234.961 241.504 235.809 238.656 235.809 235.008V231.648H227.409V235.728C227.409 237.264 227.233 238.448 226.881 239.28C226.561 240.08 225.809 240.48 224.625 240.48C223.441 240.48 222.641 240.08 222.225 239.28C221.841 238.448 221.649 237.264 221.649 235.728V217.44C221.649 215.936 221.841 214.768 222.225 213.936C222.609 213.072 223.409 212.64 224.625 212.64C225.841 212.64 226.609 213.04 226.929 213.84C227.249 214.64 227.409 215.792 227.409 217.296V221.184H235.809V217.824C235.809 214.24 234.961 211.472 233.265 209.52C231.569 207.568 228.689 206.592 224.625 206.592C220.369 206.592 217.361 207.696 215.601 209.904C213.841 212.08 212.961 215.312 212.961 219.6V233.616C212.961 237.808 213.841 241.024 215.601 243.264ZM242.696 243.36C244.488 245.504 247.48 246.576 251.672 246.576C255.896 246.576 258.904 245.504 260.696 243.36C262.52 241.184 263.432 237.984 263.432 233.76V219.312C263.432 215.12 262.52 211.952 260.696 209.808C258.904 207.664 255.896 206.592 251.672 206.592C247.48 206.592 244.488 207.664 242.696 209.808C240.904 211.92 240.008 215.088 240.008 219.312V233.76C240.008 237.984 240.904 241.184 242.696 243.36ZM254.072 239.28C253.688 240.08 252.888 240.48 251.672 240.48C250.456 240.48 249.672 240.08 249.32 239.28C248.968 238.448 248.792 237.328 248.792 235.92V217.2C248.792 215.792 248.984 214.688 249.368 213.888C249.752 213.056 250.52 212.64 251.672 212.64C252.888 212.64 253.688 213.04 254.072 213.84C254.456 214.64 254.648 215.76 254.648 217.2V235.92C254.648 237.328 254.456 238.448 254.072 239.28ZM278.405 207.12H269.189L268.517 246H274.709L275.285 219.936L280.085 246H285.509L290.021 220.128L290.741 246H296.837L296.165 207.12H287.285L282.677 229.728L278.405 207.12ZM319.93 207.12H302.458V246H320.026V240.192H311.05V228.576H317.818V222.624H311.05V212.976H319.93V207.12Z" fill="#181818"/>
</svg>
