<svg viewBox="0 0 332 79" fill="none" xmlns="http://www.w3.org/2000/svg">
<path d="M0.0160002 22.512H13.072L17.104 54L21.424 22.512H32.752L36.496 54.768L41.2 22.512H53.296L45.04 78H31.6L26.8 46.8L21.424 78H8.176L0.0160002 22.512ZM78.3213 78.96C72.2413 78.96 67.5053 77.36 64.1133 74.16C60.7213 70.896 59.0253 66.32 59.0253 60.432V40.08C59.0253 34.192 60.7213 29.648 64.1133 26.448C67.5053 23.184 72.2413 21.552 78.3213 21.552C84.4653 21.552 89.0733 23.12 92.1453 26.256C95.2173 29.392 96.7533 34 96.7533 40.08V51.216H74.4813V61.872C74.4813 65.84 75.7613 67.824 78.3213 67.824C81.0093 67.824 82.3533 66.032 82.3533 62.448V56.592H96.7533V61.968C96.7533 67.536 95.1213 71.76 91.8573 74.64C88.6573 77.52 84.1453 78.96 78.3213 78.96ZM82.3533 43.92V38.352C82.3533 36.304 81.9693 34.864 81.2013 34.032C80.4973 33.136 79.5053 32.688 78.2253 32.688C77.0093 32.688 76.0813 33.168 75.4413 34.128C74.8013 35.088 74.4813 36.784 74.4813 39.216V43.92H82.3533ZM105.943 0.239994H121.495V78H105.943V0.239994ZM149.663 78.96C143.647 78.96 138.943 77.328 135.551 74.064C132.159 70.8 130.463 66.256 130.463 60.432V40.08C130.463 34.192 132.127 29.648 135.455 26.448C138.847 23.184 143.583 21.552 149.663 21.552C155.679 21.552 160.287 22.96 163.487 25.776C166.751 28.592 168.383 32.752 168.383 38.256V44.112H153.311V37.776C153.311 35.664 152.991 34.224 152.351 33.456C151.775 32.624 150.879 32.208 149.663 32.208C148.447 32.208 147.551 32.72 146.975 33.744C146.463 34.704 146.207 36.368 146.207 38.736V61.776C146.207 64.144 146.495 65.808 147.071 66.768C147.647 67.728 148.543 68.208 149.759 68.208C150.975 68.208 151.871 67.792 152.447 66.96C153.023 66.128 153.311 64.72 153.311 62.736V55.344H168.383V62.064C168.383 67.568 166.751 71.76 163.487 74.64C160.223 77.52 155.615 78.96 149.663 78.96ZM194.761 78.96C188.681 78.96 183.913 77.424 180.457 74.352C177.065 71.28 175.369 66.768 175.369 60.816V39.696C175.369 33.744 177.065 29.232 180.457 26.16C183.913 23.088 188.681 21.552 194.761 21.552C200.841 21.552 205.609 23.12 209.065 26.256C212.521 29.328 214.249 33.808 214.249 39.696V60.816C214.249 66.704 212.521 71.216 209.065 74.352C205.609 77.424 200.841 78.96 194.761 78.96ZM194.857 68.592C196.329 68.592 197.353 68.048 197.929 66.96C198.505 65.808 198.793 64.112 198.793 61.872V38.64C198.793 36.4 198.505 34.736 197.929 33.648C197.353 32.496 196.329 31.92 194.857 31.92C193.385 31.92 192.329 32.496 191.689 33.648C191.113 34.8 190.825 36.464 190.825 38.64V61.872C190.825 64.112 191.113 65.808 191.689 66.96C192.329 68.048 193.385 68.592 194.857 68.592ZM222.927 22.512H238.287V26.928C241.999 23.28 246.383 21.456 251.439 21.456C253.679 21.456 255.599 22.032 257.199 23.184C258.863 24.272 260.111 25.904 260.943 28.08C264.847 23.664 269.551 21.456 275.055 21.456C278.319 21.456 280.911 22.672 282.831 25.104C284.815 27.472 285.807 30.736 285.807 34.896V78H270.447V36.528C270.447 34.992 270.159 33.904 269.583 33.264C269.071 32.56 268.271 32.208 267.183 32.208C266.479 32.208 265.647 32.4 264.687 32.784C263.727 33.104 262.831 33.584 261.999 34.224V34.896V78H246.831V36.528C246.831 33.648 245.711 32.208 243.471 32.208C241.999 32.208 240.271 32.88 238.287 34.224V78H222.927V22.512ZM313.353 78.96C307.273 78.96 302.537 77.36 299.145 74.16C295.753 70.896 294.057 66.32 294.057 60.432V40.08C294.057 34.192 295.753 29.648 299.145 26.448C302.537 23.184 307.273 21.552 313.353 21.552C319.497 21.552 324.105 23.12 327.177 26.256C330.249 29.392 331.785 34 331.785 40.08V51.216H309.513V61.872C309.513 65.84 310.793 67.824 313.353 67.824C316.041 67.824 317.385 66.032 317.385 62.448V56.592H331.785V61.968C331.785 67.536 330.153 71.76 326.889 74.64C323.689 77.52 319.177 78.96 313.353 78.96ZM317.385 43.92V38.352C317.385 36.304 317.001 34.864 316.233 34.032C315.529 33.136 314.537 32.688 313.257 32.688C312.041 32.688 311.113 33.168 310.473 34.128C309.833 35.088 309.513 36.784 309.513 39.216V43.92H317.385Z" fill="black"/>
</svg>
